<?xml version="1.0"?>
<svg xmlns="http://www.w3.org/2000/svg" xmlns:xlink="http://www.w3.org/1999/xlink" version="1.1" id="Capa_1" x="0px" y="0px" viewBox="0 0 490 490" style="enable-background:new 0 0 490 490;" xml:space="preserve" width="512px" height="512px" class=""><g><g>
	<circle cx="157.731" cy="175.289" r="42.642" data-original="#000000" class="active-path" data-old_color="#9C9B9A" fill="#A5A4A2"/>
	<circle cx="332.429" cy="175.289" r="42.642" data-original="#000000" class="active-path" data-old_color="#9C9B9A" fill="#A5A4A2"/>
	<polygon points="150.045,319.319 156.355,349.286 344.412,309.764 338.101,279.797  " data-original="#000000" class="active-path" data-old_color="#9C9B9A" fill="#A5A4A2"/>
	<path d="M69.086,490h351.829C459.001,490,490,459.001,490,420.914V69.086C490,30.999,459.001,0,420.914,0H69.086   C30.999,0,0,30.999,0,69.086v351.829C0,459.001,30.999,490,69.086,490z M30.625,69.086c0-21.204,17.256-38.461,38.461-38.461   h351.829c21.204,0,38.461,17.257,38.461,38.461v351.829c0,21.204-17.257,38.461-38.461,38.461H69.086   c-21.204,0-38.461-17.257-38.461-38.461V69.086z" data-original="#000000" class="active-path" data-old_color="#9C9B9A" fill="#A5A4A2"/>
</g></g> </svg>
