<?xml version="1.0"?>
<svg xmlns="http://www.w3.org/2000/svg" height="512px" viewBox="0 0 512 512" width="512px" class=""><g><path d="m503.464844 512h-494.929688c-4.710937 0-8.535156-3.824219-8.535156-8.535156v-494.929688c0-4.710937 3.824219-8.535156 8.535156-8.535156h494.929688c4.710937 0 8.535156 3.824219 8.535156 8.535156v494.929688c0 4.710937-3.824219 8.535156-8.535156 8.535156zm-486.398438-17.066406h477.867188v-477.867188h-477.867188zm0 0" data-original="#000000" class="active-path" data-old_color="#000000" fill="#FFFFFF"/><path d="m119.464844 298.667969c-23.523438 0-42.664063-19.140625-42.664063-42.667969s19.140625-42.667969 42.664063-42.667969c23.527344 0 42.667968 19.140625 42.667968 42.667969s-19.140624 42.667969-42.667968 42.667969zm0-68.269531c-14.113282 0-25.597656 11.488281-25.597656 25.601562s11.484374 25.601562 25.597656 25.601562c14.117187 0 25.601562-11.488281 25.601562-25.601562s-11.484375-25.601562-25.601562-25.601562zm0 0" data-original="#000000" class="active-path" data-old_color="#000000" fill="#FFFFFF"/><path d="m119.464844 443.734375c-23.523438 0-42.664063-19.140625-42.664063-42.667969s19.140625-42.667968 42.664063-42.667968c23.527344 0 42.667968 19.140624 42.667968 42.667968s-19.140624 42.667969-42.667968 42.667969zm0-68.269531c-14.113282 0-25.597656 11.488281-25.597656 25.601562 0 14.113282 11.484374 25.601563 25.597656 25.601563 14.117187 0 25.601562-11.488281 25.601562-25.601563 0-14.113281-11.484375-25.601562-25.601562-25.601562zm0 0" data-original="#000000" class="active-path" data-old_color="#000000" fill="#FFFFFF"/><path d="m426.667969 136.535156h-196.269531c-4.707032 0-8.53125-3.824218-8.53125-8.535156v-34.132812c0-4.710938 3.824218-8.535157 8.53125-8.535157h196.269531c4.710937 0 8.53125 3.824219 8.53125 8.535157v34.132812c0 4.710938-3.820313 8.535156-8.53125 8.535156zm-187.734375-17.070312h179.199218v-17.066406h-179.199218zm0 0" data-original="#000000" class="active-path" data-old_color="#000000" fill="#FFFFFF"/><path d="m426.667969 281.601562h-196.269531c-4.707032 0-8.53125-3.824218-8.53125-8.535156v-34.132812c0-4.710938 3.824218-8.535156 8.53125-8.535156h196.269531c4.710937 0 8.53125 3.824218 8.53125 8.535156v34.132812c0 4.710938-3.820313 8.535156-8.53125 8.535156zm-187.734375-17.066406h179.199218v-17.070312h-179.199218zm0 0" data-original="#000000" class="active-path" data-old_color="#000000" fill="#FFFFFF"/><path d="m426.667969 426.667969h-196.269531c-4.707032 0-8.53125-3.824219-8.53125-8.535157v-34.132812c0-4.710938 3.824218-8.535156 8.53125-8.535156h196.269531c4.710937 0 8.53125 3.824218 8.53125 8.535156v34.132812c0 4.710938-3.820313 8.535157-8.53125 8.535157zm-187.734375-17.066407h179.199218v-17.066406h-179.199218zm0 0" data-original="#000000" class="active-path" data-old_color="#000000" fill="#FFFFFF"/><path d="m119.464844 128c-2.183594 0-4.367188-.835938-6.03125-2.5l-25.601563-25.601562c-3.335937-3.335938-3.335937-8.726563 0-12.066407 3.339844-3.335937 8.730469-3.335937 12.066407 0l25.601562 25.601563c3.335938 3.335937 3.335938 8.730468 0 12.066406-1.664062 1.664062-3.847656 2.5-6.035156 2.5zm0 0" data-original="#000000" class="active-path" data-old_color="#000000" fill="#FFFFFF"/><path d="m119.457031 128c-1.714843 0-3.445312-.519531-4.949219-1.585938-3.839843-2.742187-4.726562-8.074218-1.988281-11.90625l42.667969-59.730468c2.738281-3.84375 8.082031-4.730469 11.902344-1.988282 3.839844 2.738282 4.730468 8.070313 1.988281 11.902344l-42.664063 59.734375c-1.664062 2.328125-4.292968 3.574219-6.957031 3.574219zm0 0" data-original="#000000" class="active-path" data-old_color="#000000" fill="#FFFFFF"/><path d="m119.464844 153.601562c-19.378906 0-36.308594-13.160156-41.1875-32-1.179688-4.566406 1.558594-9.21875 6.125-10.402343 4.589844-1.152344 9.226562 1.570312 10.402344 6.125 2.925781 11.316406 13.066406 19.210937 24.660156 19.210937 11.597656 0 21.734375-7.894531 24.664062-19.203125 1.175782-4.5625 5.851563-7.285156 10.402344-6.125 4.5625 1.183594 7.304688 5.835938 6.125 10.402344-4.878906 18.832031-21.808594 31.992187-41.191406 31.992187zm0 0" data-original="#000000" class="active-path" data-old_color="#000000" fill="#FFFFFF"/><path d="m102.410156 81.40625c-2.9375 0-5.789062-1.507812-7.375-4.222656-2.378906-4.070313-1.007812-9.292969 3.054688-11.671875 9.574218-5.597657 21.394531-7.1875 32.0625-4.421875 4.5625 1.1875 7.292968 5.84375 6.109375 10.402344-1.1875 4.558593-5.828125 7.3125-10.402344 6.109374-6.339844-1.65625-13.441406-.707031-19.148437 2.636719-1.359376.792969-2.84375 1.167969-4.300782 1.167969zm0 0" data-original="#000000" class="active-path" data-old_color="#000000" fill="#FFFFFF"/></g> </svg>
